HIERARCHY
ROOT Hips
{
	OFFSET 0.00000 0.00000 0.00000
	CHANNELS 6 Xposition Yposition Zposition Zrotation Yrotation Xrotation 
	JOINT LHipJoint
	{
		OFFSET 0 0 0
		CHANNELS 3 Zrotation Yrotation Xrotation
		JOINT LeftHip
		{
			OFFSET 1.56857 -1.73443 1.15205
			CHANNELS 3 Zrotation Yrotation Xrotation
			JOINT LeftKnee
			{
				OFFSET 2.39362 -6.57643 0.00000
				CHANNELS 3 Zrotation Yrotation Xrotation
				JOINT LeftAnkle
				{
					OFFSET 2.50952 -6.89485 0.00000
					CHANNELS 3 Zrotation Yrotation Xrotation
					JOINT LeftToe
					{
						OFFSET 0.17171 -0.47178 1.88682
						CHANNELS 3 Zrotation Yrotation Xrotation
						End Site
						{
							OFFSET 0.00000 -0.00000 0.98146
						}
					}
				}
			}
		}
	}
	JOINT RHipJoint
	{
		OFFSET 0 0 0
		CHANNELS 3 Zrotation Yrotation Xrotation
		JOINT RightHip
		{
			OFFSET -1.28153 -1.73443 1.15205
			CHANNELS 3 Zrotation Yrotation Xrotation
			JOINT RightKnee
			{
				OFFSET -2.26861 -6.23296 0.00000
				CHANNELS 3 Zrotation Yrotation Xrotation
				JOINT RightAnkle
				{
					OFFSET -2.54143 -6.98254 0.00000
					CHANNELS 3 Zrotation Yrotation Xrotation
					JOINT RightToe
					{
						OFFSET -0.23309 -0.64041 1.93119
						CHANNELS 3 Zrotation Yrotation Xrotation
						End Site
						{
							OFFSET -0.00000 -0.00000 1.02013
						}
					}
				}
			}
		}
	}
	JOINT lowerback
	{
		OFFSET 0 0 0
		CHANNELS 3 Zrotation Yrotation Xrotation
		JOINT Chest
		{
			OFFSET -0.07096 2.10460 -0.27878
			CHANNELS 3 Zrotation Yrotation Xrotation
			JOINT Chest2
			{
				OFFSET -0.00826 2.13662 -0.08279
				CHANNELS 3 Zrotation Yrotation Xrotation
				JOINT lowerneck
				{
					OFFSET 0 0 0
					CHANNELS 3 Zrotation Yrotation Xrotation
					JOINT Neck
					{
						OFFSET 0.03239 1.77799 0.24435
						CHANNELS 3 Zrotation Yrotation Xrotation
						JOINT Head
						{
							OFFSET 0.01026 1.74194 -0.49664
							CHANNELS 3 Zrotation Yrotation Xrotation
							End Site
							{
								OFFSET 0.00170 1.83057 -0.19653
							}
						}
					}
				}
				JOINT LeftCollar
				{
					OFFSET 0 0 0
					CHANNELS 3 Zrotation Yrotation Xrotation
					JOINT LeftShoulder
					{
						OFFSET 3.19178 1.35907 -0.31412
CHANNELS 3 Zrotation Xrotation Yrotation
						JOINT LeftElbow
						{
OFFSET 0 -4.852470 -0.000000
CHANNELS 3 Zrotation Xrotation Yrotation
							JOINT LeftWrist
							{
OFFSET 0 -3.555840 0.000000
CHANNELS 3 Zrotation Xrotation Yrotation
								JOINT lhand
								{
									OFFSET 0 0 0
CHANNELS 3 Zrotation Xrotation Yrotation
									JOINT LFingers
									{
OFFSET 0 -0.693200 0.000000
CHANNELS 3 Zrotation Xrotation Yrotation
										End Site
										{
OFFSET 0 -0.558880 0.000000
										}
									}
								}
								JOINT LThumb
								{
OFFSET 0 0.000000 0.000000
CHANNELS 3 Zrotation Xrotation Yrotation
									End Site
									{
OFFSET 0 -0.567410 0.567410
									}
								}
							}
						}
					}
				}
				JOINT RightCollar
				{
					OFFSET 0 0 0
					CHANNELS 3 Zrotation Yrotation Xrotation
					JOINT RightShoulder
					{
						OFFSET -3.28999 1.24191 -0.26899
CHANNELS 3 Zrotation Xrotation Yrotation
						JOINT RightElbow
						{
OFFSET 0 -4.644620 0.000000
CHANNELS 3 Zrotation Xrotation Yrotation
							JOINT RightWrist
							{
OFFSET 0 -3.407030 0.000000
CHANNELS 3 Zrotation Xrotation Yrotation
								JOINT rhand
								{
									OFFSET 0 0 0
CHANNELS 3 Zrotation Xrotation Yrotation
									JOINT RFingers
									{
OFFSET 0 -0.619580 0.000000
CHANNELS 3 Zrotation Xrotation Yrotation
										End Site
										{
OFFSET 0 -0.499520 0.000000
										}
									}
								}
								JOINT RThumb
								{
OFFSET 0 0.000000 0.000000
CHANNELS 3 Zrotation Xrotation Yrotation
									End Site
									{
OFFSET 0 -0.507150 0.507150
									}
								}
							}
						}
					}
				}
			}
		}
	}
}
MOTION
Frames: 10
Frame Time: 0.008333333333333333
-29.880200 17.066000 0.901600 44.499000 86.030000 45.299600 0.000000 0.000000 0.000000 -18.254200 3.077900 9.389200 0.004400 -0.427600 -1.175000 0.356200 4.789900 -14.062000 0.440800 -4.260200 -11.810000 0.000000 0.000000 0.000000 13.447200 -4.044500 5.877500 -0.075800 -1.775600 4.885800 -0.924500 3.512600 -17.328900 -0.163700 -2.607000 7.186400 -5.570100 1.497700 3.741300 -0.257600 1.764000 0.192400 2.758000 0.935200 -2.060700 3.512900 2.172800 -22.058100 -1.658900 2.639400 26.825100 -0.750600 1.413400 12.671000 -0.000000 0.000000 0.000000 2.491700 0.856200 -38.886800 11.822600 -19.538100 2.042600 14.558700 11.658900 26.611300 0.000000 0.000000 0.000000 -7.125000 0.000000 0.000000 -9.237900 2.918400 -8.873400 -0.000000 0.000000 0.000000 -90.000000 0.000000 -0.000000 0.000000 0.000000 -0.000000 0.000000 0.000000 -0.000000 0.000000 0.000000 0.000000 0.000000 -0.000000 0.000000 0.000000 0.000000 0.000000
-29.884688 17.071766 0.908776 40.382164 86.081560 41.164397 0.000000 0.000000 0.000000 -17.883434 3.187361 9.410634 0.004734 -0.443967 -1.219847 0.364964 4.727306 -14.137556 0.487553 -4.476410 -12.421020 0.000000 0.000000 0.000000 13.879732 -3.686596 5.650043 -0.092929 -1.963845 5.405742 -0.960168 3.457668 -17.679695 -0.165370 -2.617883 7.216682 -5.405198 1.555670 3.910140 -0.163238 1.837755 0.172953 2.753958 0.973648 -2.180025 3.300344 2.171524 -21.961619 -1.371631 2.620795 26.644129 -0.609131 1.420794 12.570242 0.000000 0.000000 0.000000 2.450521 0.772964 -38.844649 11.716277 -19.377749 2.007154 14.985161 11.603346 26.469176 0.000000 0.000000 0.000000 -7.125000 0.000000 0.000000 -8.972012 2.998911 -8.598078 0.000000 0.000000 0.000000 -90.000000 0.000000 0.000000 0.000000 0.000000 0.000000 0.000000 0.000000 0.000000 0.000000 0.000000 0.000000 0.000000 0.000000 0.000000 0.000000 0.000000 0.000000
-29.886296 17.071836 0.914320 36.627026 85.999984 37.460997 0.000000 0.000000 0.000000 -17.659620 3.360416 9.359158 0.005406 -0.473120 -1.300096 0.357426 4.841242 -14.120977 0.556217 -4.775184 -13.268801 0.000000 0.000000 0.000000 14.185217 -3.316673 5.207827 -0.120630 -2.236676 6.160292 -1.008134 3.532410 -18.121654 -0.196042 -2.851131 7.864544 -5.272128 1.607351 3.986747 -0.129503 1.906222 0.123053 2.707045 1.009545 -2.277397 3.311190 2.220655 -21.990822 -1.311341 2.669496 26.690747 -0.579093 1.452161 12.595563 0.000000 0.000000 0.000000 2.487864 0.823095 -38.810384 11.675367 -19.316017 1.993656 15.575728 11.396168 26.381461 0.000000 0.000000 0.000000 -7.125000 0.000000 0.000000 -8.610877 3.000311 -8.243340 0.000000 0.000000 0.000000 -90.000000 0.000000 0.000000 0.000000 0.000000 0.000000 0.000000 0.000000 0.000000 0.000000 0.000000 0.000000 0.000000 0.000000 0.000000 0.000000 0.000000 0.000000
-29.888128 17.074526 0.921797 34.299461 85.854892 35.117646 0.000000 0.000000 0.000000 -17.555003 3.580918 9.391762 0.006501 -0.519488 -1.427553 0.344192 4.941206 -14.010563 0.613960 -5.014741 -13.950608 0.000000 0.000000 0.000000 14.383806 -2.978183 4.916763 -0.145346 -2.456062 6.767750 -1.043798 3.553623 -18.448695 -0.169982 -2.647573 7.299474 -5.274716 1.665225 4.149911 -0.119557 1.972569 0.108841 2.709580 1.045717 -2.389983 3.330009 2.255968 -22.164063 -1.300273 2.702796 26.759906 -0.570666 1.468823 12.659389 0.000000 0.000000 0.000000 2.524377 0.886366 -38.755298 11.701719 -19.355756 2.002372 15.465242 11.482129 26.273393 0.000000 0.000000 0.000000 -7.125000 0.000000 0.000000 -8.669367 3.125307 -8.280478 0.000000 0.000000 0.000000 -90.000000 0.000000 0.000000 0.000000 0.000000 0.000000 0.000000 0.000000 0.000000 0.000000 0.000000 0.000000 0.000000 0.000000 0.000000 0.000000 0.000000 0.000000
-29.891512 17.075688 0.930386 35.047113 85.726725 35.834691 0.000000 0.000000 0.000000 -17.640820 3.706112 9.383077 0.006263 -0.511571 -1.405612 0.350582 4.826549 -14.010618 0.598345 -4.951169 -13.769411 0.000000 0.000000 0.000000 14.430460 -2.590996 4.736884 -0.168203 -2.641111 7.281200 -1.081255 3.413662 -18.810670 -0.123001 -2.257143 6.217013 -5.410485 1.708867 4.310499 -0.202320 2.014686 0.146583 2.693159 1.068868 -2.446420 3.530235 2.270807 -22.379390 -1.412100 2.668613 26.737785 -0.651819 1.455104 12.698397 0.000000 0.000000 0.000000 2.730193 0.887469 -39.153392 11.791106 -19.490547 2.032057 15.534352 11.113387 25.913187 0.000000 0.000000 0.000000 -7.125000 0.000000 0.000000 -8.601285 3.477779 -8.157990 0.000000 0.000000 0.000000 -90.000000 0.000000 0.000000 0.000000 0.000000 0.000000 0.000000 0.000000 0.000000 0.000000 0.000000 0.000000 0.000000 0.000000 0.000000 0.000000 0.000000 0.000000
-29.894698 17.072586 0.940356 34.677453 85.710691 35.579188 0.000000 0.000000 0.000000 -17.668330 3.424930 9.395431 0.006859 -0.535539 -1.471482 0.340932 5.136920 -14.123121 0.573317 -4.848796 -13.477751 0.000000 0.000000 0.000000 14.671806 -2.084733 4.390729 -0.199496 -2.875188 7.931493 -1.131323 3.271543 -19.282008 -0.113806 -2.175111 5.989785 -5.433375 1.664544 4.308060 -0.201763 1.953626 0.116701 2.710475 1.039783 -2.471376 3.633298 2.310977 -22.316611 -1.510679 2.712473 26.573069 -0.700386 1.468937 12.624234 0.000000 0.000000 0.000000 2.766574 0.989389 -39.065820 11.850394 -19.579943 2.051854 15.850130 10.908285 25.578875 0.000000 0.000000 0.000000 -7.125000 0.000000 0.000000 -8.385992 3.768196 -7.903429 0.000000 0.000000 0.000000 -90.000000 0.000000 0.000000 0.000000 0.000000 0.000000 0.000000 0.000000 0.000000 0.000000 0.000000 0.000000 0.000000 0.000000 0.000000 0.000000 0.000000 0.000000
-29.899522 17.070460 0.956169 34.575042 85.740295 35.593878 0.000000 0.000000 0.000000 -17.603234 3.258954 9.390253 0.008499 -0.596035 -1.637722 0.322792 5.357039 -14.042740 0.509834 -4.577033 -12.705935 0.000000 0.000000 0.000000 14.950272 -1.699228 4.110575 -0.227048 -3.066983 8.465238 -1.175700 3.078673 -19.705219 -0.123023 -2.260674 6.226664 -5.471556 1.619789 4.337318 -0.211358 1.888937 0.088434 2.725189 1.009507 -2.512416 3.637928 2.306487 -22.100086 -1.589435 2.720091 26.197383 -0.732828 1.457909 12.432058 0.000000 0.000000 0.000000 2.822299 1.160253 -38.812967 11.956328 -19.739040 2.087489 15.745281 11.135631 25.498255 0.000000 0.000000 0.000000 -7.125000 0.000000 0.000000 -8.443776 3.864789 -7.943786 0.000000 0.000000 0.000000 -90.000000 0.000000 0.000000 0.000000 0.000000 0.000000 0.000000 0.000000 0.000000 0.000000 0.000000 0.000000 0.000000 0.000000 0.000000 0.000000 0.000000 0.000000
-29.900480 17.065171 0.974701 35.200153 85.586156 36.275507 0.000000 0.000000 0.000000 -17.577562 3.709454 9.190327 0.008508 -0.594286 -1.633103 0.331970 4.958452 -13.847663 0.472854 -4.408816 -12.230007 0.000000 0.000000 0.000000 14.946660 -1.525608 3.913941 -0.245802 -3.189207 8.805936 -1.208544 3.173730 -19.976987 -0.141161 -2.421253 6.671221 -5.700253 1.618302 4.342983 -0.271025 1.877216 0.146682 2.793139 1.004010 -2.460087 3.680046 2.285355 -22.046131 -1.715525 2.695208 25.849605 -0.793450 1.427955 12.285277 0.000000 0.000000 0.000000 2.973182 1.244005 -38.789763 12.112042 -19.972481 2.140427 15.264162 11.298190 25.691319 0.000000 0.000000 0.000000 -7.125000 0.000000 0.000000 -8.749089 3.740072 -8.258373 0.000000 0.000000 0.000000 -90.000000 0.000000 0.000000 0.000000 0.000000 0.000000 0.000000 0.000000 0.000000 0.000000 0.000000 0.000000 0.000000 0.000000 0.000000 0.000000 0.000000 0.000000
-29.896230 17.055039 0.998615 38.665086 84.814353 39.604723 0.000000 0.000000 0.000000 -18.273996 4.673974 9.087645 0.008756 -0.603824 -1.659326 0.340363 4.517398 -13.620797 0.533714 -4.680746 -13.000313 0.000000 0.000000 0.000000 14.049616 -1.836408 3.522446 -0.283665 -3.424362 9.462566 -1.213935 4.216991 -19.857468 -0.137486 -2.389853 6.584287 -6.650942 1.761152 4.412348 -0.425246 2.020158 0.270096 3.155192 1.082763 -2.411689 3.544811 2.326308 -22.212074 -1.447562 2.709632 25.839178 -0.665511 1.454407 12.308172 0.000000 0.000000 0.000000 2.946690 1.123351 -38.194123 12.034050 -19.855610 2.113837 15.550941 11.592578 25.912871 0.000000 0.000000 0.000000 -7.125000 0.000000 0.000000 -8.590857 3.474537 -8.148585 0.000000 0.000000 0.000000 -90.000000 0.000000 0.000000 0.000000 0.000000 0.000000 0.000000 0.000000 0.000000 0.000000 0.000000 0.000000 0.000000 0.000000 0.000000 0.000000 0.000000 0.000000
-29.896462 17.052552 1.015777 42.005692 84.710989 42.854900 0.000000 0.000000 0.000000 -18.456297 4.909561 9.016190 0.008093 -0.581013 -1.596608 0.348799 4.162244 -13.475939 0.551370 -4.756743 -13.216019 0.000000 0.000000 0.000000 13.849221 -1.667759 3.419214 -0.314069 -3.601732 9.958920 -1.251870 4.126899 -20.190201 -0.133381 -2.353789 6.484514 -7.051010 1.717202 4.588070 -0.489639 1.930758 0.337587 3.314959 1.042611 -2.442006 3.461537 2.381469 -22.382850 -1.277582 2.759681 25.901235 -0.576906 1.489938 12.364010 0.000000 0.000000 0.000000 2.995019 1.106735 -38.045940 12.034465 -19.856272 2.113992 15.582526 11.511885 26.003545 0.000000 0.000000 0.000000 -7.125000 0.000000 0.000000 -8.577735 3.378450 -8.152458 0.000000 0.000000 0.000000 -90.000000 0.000000 0.000000 0.000000 0.000000 0.000000 0.000000 0.000000 0.000000 0.000000 0.000000 0.000000 0.000000 0.000000 0.000000 0.000000 0.000000 0.000000
